<svg width="132" height="30" viewBox="0 0 132 30" fill="none" xmlns="http://www.w3.org/2000/svg">
<path fill-rule="evenodd" clip-rule="evenodd" d="M61.7885 8.87423C62.1027 8.55129 62.3495 8.16904 62.5145 7.74976C62.6795 7.33048 62.7594 6.88254 62.7496 6.43207C62.7398 5.98159 62.6404 5.53757 62.4572 5.12589C62.274 4.71421 62.0108 4.3431 61.6828 4.03418C59.6078 2.0673 57.0047 0.747712 54.1917 0.236788C51.3787 -0.274135 48.4778 0.0457544 45.8437 1.15734C43.2096 2.26892 40.9566 4.12401 39.3601 6.49575C37.7635 8.86749 36.8928 11.6531 36.8543 14.5118C36.8928 17.3706 37.7635 20.1562 39.3601 22.5279C40.9566 24.8996 43.2096 26.7547 45.8437 27.8663C48.4778 28.9779 51.3787 29.2978 54.1917 28.7869C57.0047 28.2759 59.6078 26.9563 61.6828 24.9895C62.0108 24.6805 62.274 24.3094 62.4572 23.8978C62.6404 23.4861 62.7398 23.0421 62.7496 22.5916C62.7594 22.1411 62.6795 21.6932 62.5145 21.2739C62.3495 20.8546 62.1027 20.4724 61.7885 20.1494C61.1494 19.494 60.2784 19.1158 59.3632 19.0964C58.448 19.077 57.5618 19.4179 56.8956 20.0457C55.4176 21.4404 53.4544 22.2046 51.4224 22.1763C49.3905 22.148 47.4494 21.3294 46.0108 19.894C45.3029 19.1878 44.7413 18.3489 44.3582 17.4254C43.975 16.5018 43.7777 15.5117 43.7777 14.5118C43.7777 13.5119 43.975 12.5219 44.3582 11.5983C44.7413 10.6747 45.3029 9.83584 46.0108 9.12964C47.4494 7.69427 49.3905 6.87564 51.4224 6.84733C53.4544 6.81901 55.4176 7.58324 56.8956 8.97796C57.5618 9.60582 58.4481 9.9467 59.3634 9.92711C60.2787 9.90752 61.1497 9.52904 61.7885 8.87325V8.87423ZM80.6787 0.000153315C76.8092 -0.0175602 73.0906 1.50029 70.3388 4.22073C67.587 6.94118 66.0266 10.6421 66 14.5115C66 18.4045 67.5465 22.1381 70.2993 24.8909C73.052 27.6437 76.7857 29.1902 80.6787 29.1902C84.5717 29.1902 88.3053 27.6437 91.058 24.8909C93.8108 22.1381 95.3574 18.4045 95.3574 14.5115C95.3307 10.6421 93.7703 6.94118 91.0185 4.22073C88.2667 1.50029 84.5482 -0.0175602 80.6787 0.000153315ZM80.6787 22.1757C79.1664 22.1585 77.693 21.6944 76.444 20.8417C75.1949 19.989 74.226 18.7859 73.6592 17.3838C73.0924 15.9817 72.953 14.4432 73.2586 12.9621C73.5643 11.4809 74.3012 10.1233 75.3767 9.06002C76.4522 7.99675 77.8181 7.27539 79.3027 6.98673C80.7872 6.69807 82.324 6.855 83.7195 7.43778C85.1151 8.02057 86.307 9.00315 87.1454 10.2619C87.9837 11.5206 88.4311 12.9991 88.431 14.5115C88.4252 15.5238 88.2201 16.525 87.8274 17.458C87.4346 18.391 86.862 19.2375 86.1422 19.9492C85.4223 20.6609 84.5693 21.2238 83.6319 21.6058C82.6944 21.9879 81.6909 22.1815 80.6787 22.1757ZM115.033 0.00245851C110.655 -0.0157832 106.449 1.70259 103.336 4.78088C100.223 7.85916 98.4573 12.0462 98.4265 16.424C98.4234 18.5835 98.8515 20.7218 99.6858 22.7136C100.52 24.7054 101.744 26.5105 103.285 28.0231C103.938 28.6645 104.816 29.0239 105.732 29.0239C106.647 29.0239 107.525 28.6645 108.178 28.0231C108.499 27.707 108.754 27.3301 108.928 26.9145C109.103 26.4989 109.192 26.0527 109.192 25.6021C109.192 25.1514 109.103 24.7053 108.928 24.2896C108.754 23.874 108.499 23.4972 108.178 23.1811C107.28 22.2977 106.567 21.2444 106.08 20.0825C105.593 18.9206 105.342 17.6735 105.342 16.4137C105.342 15.1539 105.593 13.9068 106.08 12.7449C106.567 11.5831 107.28 10.5297 108.178 9.64635C110.004 7.85021 112.462 6.8436 115.023 6.8436C117.584 6.8436 120.043 7.85021 121.868 9.64635C122.766 10.5297 123.48 11.5831 123.967 12.7449C124.454 13.9068 124.704 15.1539 124.704 16.4137C124.704 17.6735 124.454 18.9206 123.967 20.0825C123.48 21.2444 122.766 22.2977 121.868 23.1811C121.547 23.4971 121.292 23.8738 121.118 24.2894C120.944 24.705 120.854 25.151 120.854 25.6016C120.854 26.0521 120.944 26.4982 121.118 26.9138C121.292 27.3293 121.547 27.7061 121.868 28.0221C122.521 28.6635 123.4 29.0229 124.315 29.0229C125.23 29.0229 126.108 28.6635 126.761 28.0221C128.306 26.5115 129.534 24.7073 130.372 22.7156C131.21 20.7239 131.642 18.5848 131.641 16.424C131.611 12.0458 129.845 7.85852 126.732 4.78018C123.618 1.70184 119.411 -0.0163027 115.033 0.00245851ZM4.90951 4.78054C8.02268 1.70223 12.2294 -0.0160343 16.6075 0.00246721C20.9856 -0.0160343 25.1923 1.70223 28.3055 4.78054C31.4187 7.85885 33.1842 12.046 33.215 16.424C33.2151 18.5847 32.7834 20.7236 31.9453 22.7151C31.1073 24.7066 29.8797 26.5106 28.3348 28.0211C27.682 28.6625 26.8035 29.0219 25.8883 29.0219C24.9732 29.0219 24.0947 28.6625 23.4419 28.0211C23.1207 27.705 22.8656 27.3282 22.6915 26.9126C22.5173 26.4969 22.4277 26.0508 22.4277 25.6001C22.4277 25.1495 22.5173 24.7033 22.6915 24.2877C22.8656 23.872 23.1207 23.4952 23.4419 23.1791C24.3402 22.2957 25.0536 21.2423 25.5406 20.0804C26.0276 18.9184 26.2784 17.6712 26.2784 16.4113C26.2784 15.1514 26.0276 13.9041 25.5406 12.7422C25.0536 11.5802 24.3402 10.5268 23.4419 9.64342C21.6161 7.84723 19.1575 6.84059 16.5962 6.84059C14.035 6.84059 11.5764 7.84723 9.7506 9.64342C8.85232 10.5268 8.13888 11.5802 7.65189 12.7422C7.1649 13.9041 6.91409 15.1514 6.91409 16.4113C6.91409 17.6712 7.1649 18.9184 7.65189 20.0804C8.13888 21.2423 8.85232 22.2957 9.7506 23.1791C10.0718 23.4952 10.3269 23.872 10.501 24.2877C10.6751 24.7033 10.7648 25.1495 10.7648 25.6001C10.7648 26.0508 10.6751 26.4969 10.501 26.9126C10.3269 27.3282 10.0718 27.705 9.7506 28.0211C9.09784 28.6625 8.2193 29.0219 7.30416 29.0219C6.38901 29.0219 5.51047 28.6625 4.85771 28.0211C3.31682 26.5087 2.09343 24.7039 1.25928 22.7125C0.425133 20.721 -0.00298161 18.5831 4.64692e-05 16.424C0.0308354 12.046 1.79635 7.85885 4.90951 4.78054ZM54.9915 14.494C55.0019 16.3834 53.4612 17.9237 51.5502 17.9342C49.6392 17.9448 48.0815 16.4217 48.0711 14.5323C48.0606 12.6429 49.6013 11.1027 51.5123 11.0921C53.4234 11.0815 54.981 12.6046 54.9915 14.494Z" fill="url(#paint0_linear_593_411)"/>
<defs>
<linearGradient id="paint0_linear_593_411" x1="6.68997" y1="7.40982" x2="93.2524" y2="71.414" gradientUnits="userSpaceOnUse">
<stop stop-color="#00A5F0"/>
<stop offset="1" stop-color="#00D7D7"/>
</linearGradient>
</defs>
</svg>
